<?xml version="1.0" encoding="UTF-8"?><svg id="Layer_2" xmlns="http://www.w3.org/2000/svg" width="256" height="256" viewBox="0 0 256 256"><g id="Layer_1-2"><rect width="256" height="256"/><path d="M115.409,41.22982c-21.06516,0-38.23078,17.16562-38.23078,38.23078,0,13.22488,6.7369,24.92222,16.99146,31.79314v-11.0179c-5.26013-5.35125-8.49573-12.65226-8.49573-20.77461,0-16.46876,13.26629-29.73505,29.73505-29.73505s29.73505,13.26629,29.73505,29.73505c0,8.12234-3.2356,15.42336-8.49573,20.77461v11.0179c10.25456-6.86965,16.99146-18.56784,16.99146-31.79314,0-21.06516-17.16562-38.23078-38.23078-38.23078Zm0,29.73505c-7.06037,0-12.74359,5.68322-12.74359,12.74359v76.46155l-8.49573-16.99146c-6.96076-12.91776-13.80556-11.57373-19.11539-8.49573-6.14772,4.09855-8.43775,8.32985-4.24786,19.11539,9.64074,23.6776,24.45071,51.88766,40.35471,70.08976h57.34617c20.1525-14.93378,36.37234-85.94491,8.49573-89.20515-2.55531,0-6.65385,.40654-8.49573,2.12393,0-8.49573-7.4172-10.66936-10.61966-10.61966-3.67546,.05808-6.3718,2.12393-8.49573,6.3718,0-8.49573-6.92763-10.61966-10.61966-10.61966-4.06542,0-8.77779,2.53874-10.61966,6.3718v-44.60257c0-7.06037-5.68322-12.74359-12.74359-12.74359Z" style="fill:#ff004f;"/><path d="M111.90068,33.22982c-21.06516,0-38.23078,17.16562-38.23078,38.23078,0,13.22488,6.7369,24.92222,16.99146,31.79314v-11.0179c-5.26013-5.35125-8.49573-12.65226-8.49573-20.77461,0-16.46876,13.26629-29.73505,29.73505-29.73505s29.73505,13.26629,29.73505,29.73505c0,8.12234-3.2356,15.42336-8.49573,20.77461v11.0179c10.25456-6.86965,16.99146-18.56784,16.99146-31.79314,0-21.06516-17.16562-38.23078-38.23078-38.23078Zm0,29.73505c-7.06037,0-12.74359,5.68322-12.74359,12.74359v76.46155l-8.49573-16.99146c-6.96076-12.91776-13.80556-11.57373-19.11539-8.49573-6.14772,4.09855-8.43775,8.32985-4.24786,19.11539,9.64074,23.6776,24.45071,51.88766,40.35471,70.08976h57.34617c20.1525-14.93378,36.37234-85.94491,8.49573-89.20515-2.55531,0-6.65385,.40654-8.49573,2.12393,0-8.49573-7.4172-10.66936-10.61966-10.61966-3.67546,.05808-6.3718,2.12393-8.49573,6.3718,0-8.49573-6.92763-10.61966-10.61966-10.61966-4.06542,0-8.77779,2.53874-10.61966,6.3718v-44.60257c0-7.06037-5.68322-12.74359-12.74359-12.74359Z" style="fill:#00f2ea;"/><path d="M114.24104,40.10418c-20.20791,0-36.67498,16.46706-36.67498,36.67498,0,12.68669,6.46274,23.90801,16.29999,30.49932v-10.56952c-5.04607-5.13348-8.15-12.13738-8.15-19.92918,0-15.79856,12.72642-28.52498,28.52498-28.52498s28.52498,12.72642,28.52498,28.52498c0,7.7918-3.10392,14.7957-8.15,19.92918v10.56952c9.83725-6.59009,16.29999-17.81222,16.29999-30.49932,0-20.20791-16.46707-36.67498-36.67498-36.67498Zm0,28.52498c-6.77305,0-12.22499,5.45194-12.22499,12.22499v73.34996l-8.15-16.29999c-6.67749-12.39207-13.24374-11.10274-18.33749-8.15-5.89754,3.93176-8.09437,7.99087-4.075,18.33749,9.24841,22.71404,23.45569,49.7761,38.71248,67.23746h55.01247c19.33239-14.32605,34.89217-82.44739,8.15-85.57495-2.45132,0-6.38307,.39-8.15,2.0375,0-8.15-7.11536-10.23517-10.18749-10.18749-3.52589,.05571-6.1125,2.0375-8.15,6.1125,0-8.15-6.64571-10.18749-10.18749-10.18749-3.89998,0-8.42058,2.43542-10.18749,6.1125v-42.78747c0-6.77305-5.45194-12.22499-12.22499-12.22499Z" style="fill:#fff;"/></g></svg>